<svg width="569" height="420" viewBox="0 0 569 420" fill="none" xmlns="http://www.w3.org/2000/svg">
<g clip-path="url(#clip0_8_277)">
<path opacity="0.1" d="M6.125 201.363C15.1099 236.111 34.1141 266.148 64.1464 280.709C126.58 310.969 267.384 295.363 372.472 277.448C426.831 268.183 474.61 242.612 509.319 206.627L6.125 201.363Z" fill="#E66B31"/>
<path opacity="0.1" d="M557.196 37.8013H499.537C496.801 37.8013 494.556 35.7723 494.556 33.2929C494.556 30.8135 496.801 28.7793 499.537 28.7793H509.51C506.768 28.7793 504.529 26.7502 504.529 24.2656C504.529 21.7811 506.768 19.7572 509.51 19.7572H502.392C499.651 19.7572 497.406 17.7281 497.406 15.2436C497.406 12.759 499.651 10.7351 502.392 10.7351H532.487C525.809 7.92446 518.003 5.92645 509.008 4.87569C426.944 -4.664 397.647 1.64576 387.312 8.1315C374.43 16.3163 360.12 21.9956 345.134 24.8713C294.504 34.3281 199.819 45.7054 114 21.2479C71.3467 9.06839 39.6436 29.623 20.6445 63.9824H567.211C566.497 53.9976 564.361 44.7737 560.44 36.704C559.511 37.4214 558.37 37.8077 557.196 37.8013Z" fill="#E66B31"/>
<path opacity="0.1" d="M1.23697 128.835C-0.977717 149.044 -0.224881 169.468 3.47155 189.458L509.707 206.224C523.642 191.761 535.482 175.414 544.881 157.661L1.23697 128.835ZM201.459 172.082H191.492C194.233 172.082 196.478 174.116 196.478 176.596C196.478 179.075 194.233 181.104 191.492 181.104H133.832C131.096 181.104 128.851 179.075 128.851 176.596C128.851 174.116 131.096 172.082 133.832 172.082H143.805C141.064 172.082 138.824 170.053 138.824 167.573C138.824 165.094 141.064 163.06 143.805 163.06H136.682C133.941 163.06 131.696 161.031 131.696 158.551C131.696 156.072 133.941 154.038 136.682 154.038H194.342C197.083 154.038 199.323 156.067 199.323 158.551C199.323 161.036 197.083 163.06 194.342 163.06H201.459C204.201 163.06 206.441 165.089 206.441 167.573C206.441 170.058 204.201 172.082 201.459 172.082Z" fill="#E66B31"/>
<path opacity="0.1" d="M567.231 64.293L14.5454 76.457C7.82094 92.1046 3.36213 109.797 1.30859 128.131H557.548C561.168 117.404 563.854 106.384 565.576 95.1947C567.236 84.4231 567.898 74.0035 567.231 64.293ZM113.524 104.175H103.556C106.298 104.175 108.542 106.21 108.542 108.689C108.542 111.168 106.298 113.203 103.556 113.203H45.8967C43.1604 113.203 40.9154 111.168 40.9154 108.689C40.9154 106.21 43.1604 104.175 45.8967 104.175H55.8695C53.128 104.175 50.8883 102.146 50.8883 99.667C50.8883 97.1876 53.128 95.1533 55.8695 95.1533H48.7468C46.0053 95.1533 43.7604 93.1243 43.7604 90.6449C43.7604 88.1655 46.0053 86.1313 48.7468 86.1313H106.406C109.148 86.1313 111.387 88.1603 111.387 90.6449C111.387 93.1294 109.148 95.1533 106.406 95.1533H113.524C116.265 95.1533 118.505 97.1876 118.505 99.667C118.505 102.146 116.265 104.175 113.524 104.175Z" fill="#E66B31"/>
<path opacity="0.1" d="M281.951 404.3C409.642 404.3 513.157 394.771 513.157 383.016C513.157 371.261 409.642 361.731 281.951 361.731C154.259 361.731 50.7441 371.261 50.7441 383.016C50.7441 394.771 154.259 404.3 281.951 404.3Z" fill="#E66B31"/>
<path d="M517.594 207.213C517.591 207.176 517.591 207.14 517.594 207.104C517.594 207.047 517.594 206.995 517.594 206.943C517.49 206.351 517.267 205.785 516.937 205.282C515.753 203.386 514.104 201.825 512.147 200.747C508.733 198.874 504.042 198.071 502.676 194.495C502.257 193.387 502.247 192.181 502.04 191.021C501.678 189.215 500.847 187.536 499.632 186.152C498.416 184.768 496.858 183.729 495.114 183.138C493.489 182.595 491.736 182.445 490.158 181.772C486.631 180.271 484.768 176.57 483.191 173.148C481.149 168.731 479.108 164.312 477.066 159.892C475.515 160.674 473.508 160.306 472.054 159.328C470.654 158.284 469.538 156.905 468.811 155.316C466.706 151.227 465.8 146.594 463.328 142.702C460.855 138.809 455.915 135.735 451.55 137.427C450.697 137.854 449.816 138.218 448.912 138.52C445.172 139.394 441.034 135.119 437.832 137.194C437.3 137.536 436.867 138.01 436.575 138.571C436.572 138.537 436.572 138.502 436.575 138.468C436.158 139.31 435.926 140.231 435.892 141.17C435.892 141.361 435.892 141.548 435.892 141.729C435.892 141.76 435.892 141.791 435.892 141.822C435.892 142.567 435.939 143.323 435.949 144.079C435.961 144.713 435.912 145.348 435.804 145.973V145.921C435.744 146.273 435.654 146.62 435.535 146.957C434.702 149.193 432.395 150.658 431.314 152.759V152.656C431.193 152.884 431.087 153.121 430.999 153.365C430.807 153.916 430.707 154.495 430.704 155.078C430.611 159.028 434.796 162.744 435.282 166.983C435.628 169.985 436.316 170.948 438.866 172.646L439.425 173.019C439.203 173.019 438.975 173.05 438.722 173.055C438.623 173.057 438.524 173.067 438.427 173.086C437.977 172.962 437.505 172.94 437.045 173.02C436.585 173.101 436.149 173.282 435.768 173.552C433.813 175.105 429.188 173.909 427.135 173.552C425.081 173.195 418.047 174.157 417.064 178.06C416.081 181.963 414.395 190.017 414.395 190.017C414.395 190.017 414.395 195.126 413.769 196.079C413.745 196.145 413.745 196.219 413.769 196.286C413.769 197.719 413.821 206.338 412.434 208.558C412.093 209.076 412.119 210.22 412.372 211.628C410.914 213.507 409.543 215.701 409.786 217.14C410.231 220.086 416.2 229.346 424.755 224.387C424.755 224.387 429.623 215.479 423.499 210.743L423.762 209.707C425.614 211.985 426.985 213.621 426.985 213.621C426.985 213.621 427.057 213.812 427.171 214.138H426.985C427.784 216.315 428.268 218.595 428.423 220.909C428.4 221.757 428.246 222.597 427.968 223.398H428.128C428.081 223.574 428.03 223.75 427.968 223.916C427.667 224.79 427.106 225.551 426.359 226.095C422.081 229.128 417.183 250.791 417.183 250.791C417.183 250.791 407.479 285.808 405.539 287.8C403.936 289.436 414.012 294.043 421.574 293.494C422.63 293.431 423.673 293.233 424.678 292.904C424.724 293.422 424.776 293.939 424.828 294.41C424.988 295.963 425.154 297.402 425.257 297.852C425.526 298.981 426.059 310.503 426.059 310.503C426.059 310.503 424.968 317.988 425.231 323.195C425.231 323.552 425.278 323.894 425.309 324.23L424.368 324.375C422.94 327.584 428.821 354.361 429.623 356.612C430.154 358.387 430.453 360.222 430.513 362.073C430.513 362.073 429.995 363.978 430.425 365.019C430.692 365.654 430.866 366.326 430.942 367.011C430.942 367.011 430.59 368.74 431.123 369.869C431.656 370.997 431.035 372.974 431.035 372.974C431.035 372.974 430.859 380.775 429.256 385.019C428.819 386.161 428.692 387.399 428.887 388.606C429.083 389.813 429.593 390.947 430.368 391.893C430.479 392.041 430.6 392.181 430.73 392.313C430.73 392.313 439.575 392.385 441.132 392.313H441.334C441.96 392.225 443.563 385.206 442.136 381.826C440.708 378.446 441.96 374.284 441.96 374.284V368.135C441.96 368.135 443.563 366.654 441.96 363.476C440.356 360.298 440.62 359.335 440.62 359.335C440.62 359.335 442.405 354.221 440.532 352.575C438.66 350.929 440.889 344.687 440.889 344.687L441.52 323.878C441.19 323.771 440.853 323.684 440.511 323.62C440.475 323.278 440.439 322.926 440.403 322.553C440.035 318.785 439.72 313.661 440.537 312.201C441.354 310.741 441.748 297.997 441.877 289.141L450.029 289.452C450.2 293.593 450.381 297.371 450.494 297.852C450.763 298.981 451.301 310.503 451.301 310.503C451.301 310.503 450.205 317.988 450.469 323.195C450.469 323.552 450.515 323.894 450.546 324.23L449.605 324.375C448.177 327.584 454.058 354.361 454.86 356.612C455.392 358.387 455.692 360.222 455.755 362.073C455.755 362.073 455.238 363.978 455.662 365.019C455.929 365.654 456.104 366.326 456.179 367.011C456.179 367.011 455.827 368.74 456.36 369.869C456.893 370.997 456.272 372.974 456.272 372.974C456.272 372.974 456.096 380.775 454.493 385.019C454.063 386.163 453.943 387.4 454.145 388.606C454.346 389.811 454.863 390.941 455.641 391.883C455.753 392.03 455.874 392.17 456.003 392.302C456.003 392.302 464.849 392.375 466.406 392.302H466.607C467.233 392.214 468.837 385.195 467.409 381.815C465.981 378.435 467.233 374.274 467.233 374.274V368.135C467.233 368.135 468.837 366.654 467.233 363.476C465.63 360.298 465.893 359.335 465.893 359.335C465.893 359.335 467.678 354.221 465.806 352.575C463.933 350.929 466.162 344.687 466.162 344.687L466.804 323.878C466.465 323.769 466.12 323.682 465.769 323.62C465.733 323.278 465.697 322.926 465.661 322.553C465.293 318.785 464.978 313.661 465.795 312.201C466.452 311.005 466.83 303.303 467 295.782C467 295.264 467 294.747 467.042 294.229C470.787 294.073 474.517 293.655 478.204 292.977C478.204 292.977 473.844 277.546 475.178 275.036C475.752 273.954 474.925 268.193 473.792 261.987C475.372 263.266 477.336 263.977 479.368 264.006C481.318 267.758 487.251 276.392 490.593 277.722C494.514 279.275 491.57 265.507 489.703 263.514C488.819 262.426 488.076 261.231 487.489 259.958C487.541 259.896 487.598 259.844 487.65 259.787C487.701 259.73 487.743 245.138 486.848 245.402C485.953 245.666 484.887 243.234 484.887 243.234L482.125 218.973L480.966 208.817C481.934 209.531 483.082 209.987 484.07 210.696C486.76 212.668 487.639 216.131 488.819 219.195C489.791 221.716 491.157 224.216 493.396 225.8C495.636 227.384 498.921 227.803 501.155 226.199C503.224 224.692 503.835 221.975 504.29 219.496C508.045 220.816 512.602 217.285 512.116 213.429C511.997 212.477 511.645 211.436 512.142 210.603C513.135 208.957 516.28 209.914 517.315 208.289C517.489 208.008 517.578 207.683 517.573 207.352C517.589 207.28 517.594 207.249 517.594 207.213ZM467.362 220.557C467.306 221.483 468.578 228.927 469.613 234.817C468.764 231.147 467.062 227.229 463.711 224.542C463.711 224.542 463.711 224.356 463.669 224.025H463.711C463.711 224.025 463.571 222.544 463.55 220.438C463.556 218.57 463.695 216.706 463.964 214.858V214.811H463.897C463.897 214.656 463.938 214.495 463.964 214.34C464.17 212.781 464.593 211.258 465.221 209.816C465.499 209.251 465.819 208.708 466.178 208.191C466.731 213.196 467.414 219.62 467.362 220.557ZM470.145 237.804C470.601 240.345 470.926 242.131 470.926 242.131L473.673 261.003V261.091C472.194 253.125 470.306 244.729 470.306 244.729C470.498 242.422 470.444 240.1 470.145 237.804Z" fill="url(#paint0_linear_8_277)"/>
<path d="M436.482 168.019C435.965 163.236 430.792 159.111 432.344 154.561C433.187 152.081 435.825 150.565 436.715 148.101C437.305 146.476 437.041 144.69 437.046 142.961C437.051 141.232 437.455 139.301 438.893 138.344C441.996 136.273 445.989 140.533 449.61 139.664C450.486 139.364 451.338 139.001 452.16 138.577C456.386 136.895 461.166 139.959 463.54 143.831C465.914 147.702 466.804 152.32 468.842 156.388C469.538 157.959 470.616 159.331 471.977 160.379C473.384 161.352 475.308 161.719 476.829 160.943L482.751 174.142C484.303 177.543 486.083 181.228 489.476 182.724C490.997 183.392 492.693 183.542 494.266 184.086C495.975 184.689 497.495 185.731 498.675 187.107C499.856 188.483 500.654 190.146 500.99 191.928C501.192 193.087 501.197 194.288 501.606 195.39C502.925 198.952 507.461 199.749 510.766 201.602C512.678 202.681 514.282 204.233 515.422 206.11C515.939 207.006 516.384 208.181 515.83 209.061C514.832 210.676 511.796 209.723 510.834 211.364C510.347 212.192 510.689 213.228 510.834 214.18C511.304 218.016 506.892 221.53 503.261 220.215C502.821 222.684 502.226 225.392 500.23 226.887C498.083 228.492 494.902 228.068 492.735 226.494C490.567 224.921 489.253 222.431 488.312 219.92C487.169 216.866 486.315 213.419 483.713 211.457C482.772 210.753 481.644 210.298 480.724 209.589C478.655 208.005 477.62 205.391 476.88 202.86C475.923 199.702 475.163 196.457 473.777 193.475C472.391 190.494 470.197 187.719 467.192 186.358C464.373 185.09 461.125 185.173 458.212 184.143C453.2 182.372 449.491 178.154 444.505 176.166C442.911 175.496 441.4 174.641 440.005 173.619C437.496 171.968 436.813 171.011 436.482 168.019Z" fill="#3F3D56"/>
<g opacity="0.1">
<path opacity="0.1" d="M436.949 147.086C437.056 146.884 437.149 146.675 437.229 146.46C437.813 144.835 437.554 143.049 437.56 141.32C437.559 140.743 437.613 140.168 437.72 139.602C437.243 140.624 437.011 141.745 437.042 142.873C437.037 144.265 437.203 145.725 436.949 147.086Z" fill="black"/>
<path opacity="0.1" d="M500.717 225.262C498.57 226.862 495.389 226.443 493.222 224.864C491.054 223.285 489.735 220.806 488.82 218.285C487.677 215.231 486.828 211.784 484.221 209.822C483.285 209.118 482.152 208.657 481.237 207.953C479.168 206.369 478.133 203.755 477.388 201.25C476.431 198.093 475.676 194.847 474.285 191.866C472.893 188.884 470.71 186.11 467.7 184.749C464.886 183.48 461.637 183.563 458.725 182.533C453.708 180.763 449.999 176.544 445.018 174.557C443.423 173.884 441.911 173.03 440.512 172.01C438.061 170.317 437.409 169.36 437.047 166.373C436.53 161.891 431.978 157.983 432.686 153.759C432.571 153.987 432.469 154.222 432.381 154.463C430.829 159.018 436.002 163.143 436.519 167.921C436.855 170.907 437.554 171.865 439.985 173.558C441.384 174.577 442.895 175.432 444.49 176.104C449.471 178.092 453.18 182.316 458.198 184.081C461.11 185.116 464.358 185.028 467.172 186.296C470.183 187.658 472.345 190.437 473.757 193.413C475.169 196.39 475.924 199.625 476.861 202.798C477.621 205.303 478.619 207.917 480.709 209.501C481.645 210.205 482.778 210.666 483.694 211.37C486.28 213.331 487.149 216.779 488.292 219.833C489.233 222.343 490.552 224.828 492.72 226.401C494.887 227.975 498.068 228.399 500.215 226.8C501.586 225.765 502.284 224.186 502.744 222.493C502.335 223.585 501.634 224.543 500.717 225.262Z" fill="black"/>
<path opacity="0.1" d="M511.346 209.738C511.148 210.11 511.062 210.53 511.098 210.95C512.267 209.795 514.905 210.473 515.826 208.988C516.039 208.621 516.123 208.192 516.064 207.771C514.864 208.91 512.225 208.232 511.346 209.738Z" fill="black"/>
<path opacity="0.1" d="M503.747 218.59C503.649 219.107 503.551 219.661 503.427 220.2C506.592 221.188 510.249 218.647 510.767 215.438C509.51 217.907 506.406 219.558 503.747 218.59Z" fill="black"/>
</g>
<path d="M443.165 170.508C443.165 170.508 444.887 173.987 439.803 174.059C434.718 174.132 443.077 196.648 443.077 196.648L451.529 207.414L462.045 201.721L462.65 186.016L463.426 176.528C463.426 176.528 453.598 173.335 455.408 169.111C457.219 164.887 443.165 170.508 443.165 170.508Z" fill="#FBBEBE"/>
<path d="M473.689 262.313C473.689 262.313 479.897 268.426 487.138 260.315L481.578 254.409H474.543L473.689 262.313Z" fill="#575A89"/>
<path opacity="0.1" d="M474.361 254.409L473.508 262.313C473.508 262.313 479.715 268.426 486.957 260.315" fill="black"/>
<path d="M484.805 255.485C484.805 255.485 487.304 262.044 489.114 264.026C490.924 266.009 493.769 279.725 489.978 278.173C486.186 276.62 478.945 265.061 478.51 263.079C478.076 261.096 477.91 255.485 477.91 255.485H484.805Z" fill="#FBBEBE"/>
<path d="M430.58 289.131L464.026 290.425L460.147 276.273L443.3 275.932L430.58 289.131Z" fill="#575A89"/>
<path opacity="0.1" d="M435.23 289.131L468.682 290.425L464.802 276.273L447.95 275.932L435.23 289.131Z" fill="black"/>
<path d="M441.527 312.491C440.735 313.966 441.04 319.069 441.397 322.843C441.625 325.245 441.873 327.093 441.873 327.093C441.873 327.093 429.371 330.975 427.478 327.61C426.997 326.756 426.759 325.26 426.676 323.505C426.417 318.329 427.478 310.87 427.478 310.87C427.478 310.87 426.96 299.4 426.702 298.277C426.598 297.826 426.438 296.398 426.283 294.85C426.055 292.552 425.838 289.995 425.838 289.995L442.908 280.937C442.908 280.937 442.908 282.634 442.877 285.248C442.783 293.458 442.509 310.679 441.527 312.491Z" fill="#FBBEBE"/>
<path opacity="0.1" d="M441.873 327.093C441.873 327.093 429.371 330.975 427.478 327.611C426.996 326.756 426.759 325.261 426.676 323.506C429.262 323.112 437.135 322.025 441.397 322.843C441.625 325.245 441.873 327.093 441.873 327.093Z" fill="black"/>
<path d="M442.301 392.312H442.104C440.599 392.369 432.043 392.312 432.043 392.312C431.918 392.181 431.801 392.043 431.692 391.898C430.936 390.951 430.436 389.824 430.241 388.628C430.047 387.431 430.163 386.204 430.58 385.066C432.131 380.837 432.302 373.072 432.302 373.072C432.302 373.072 432.907 371.09 432.39 369.967C431.873 368.843 432.214 367.12 432.214 367.12C432.135 366.438 431.961 365.771 431.697 365.137C431.268 364.102 431.785 362.202 431.785 362.202C431.726 360.362 431.435 358.536 430.921 356.767C430.145 354.526 424.455 327.869 425.836 324.675C425.836 324.675 437.904 322.605 442.477 324.158L441.871 344.862C441.871 344.862 439.714 351.074 441.525 352.715C443.335 354.355 441.613 359.444 441.613 359.444C441.613 359.444 441.354 360.391 442.906 363.585C444.458 366.778 442.906 368.243 442.906 368.243V374.366C442.906 374.366 441.701 378.507 443.077 381.872C444.453 385.236 442.906 392.204 442.301 392.312Z" fill="#3F3D56"/>
<path d="M465.987 312.491C465.196 313.966 465.501 319.07 465.858 322.843C466.086 325.245 466.334 327.093 466.334 327.093C466.334 327.093 453.832 330.975 451.939 327.61C451.457 326.756 451.22 325.26 451.137 323.506C450.878 318.329 451.939 310.871 451.939 310.871C451.939 310.871 451.421 299.4 451.163 298.277C451.023 297.671 450.78 291.895 450.588 286.713C450.428 282.293 450.299 278.297 450.299 278.297L467.368 280.937C467.368 280.937 467.368 288.447 467.156 296.165C466.97 303.65 466.624 311.321 465.987 312.491Z" fill="#FBBEBE"/>
<path opacity="0.1" d="M466.334 327.093C466.334 327.093 453.832 330.975 451.938 327.611C451.457 326.756 451.219 325.261 451.137 323.506C453.723 323.112 461.596 322.025 465.858 322.843C466.086 325.245 466.334 327.093 466.334 327.093Z" fill="black"/>
<path d="M466.764 392.312H466.567C465.062 392.369 456.506 392.312 456.506 392.312C456.381 392.181 456.264 392.043 456.154 391.898C455.398 390.951 454.899 389.825 454.704 388.628C454.509 387.431 454.626 386.204 455.042 385.066C456.594 380.816 456.749 373.052 456.749 373.052C456.749 373.052 457.354 371.069 456.837 369.946C456.32 368.823 456.661 367.099 456.661 367.099C456.582 366.418 456.408 365.75 456.144 365.117C455.715 364.082 456.232 362.182 456.232 362.182C456.173 360.341 455.883 358.515 455.368 356.747C454.592 354.506 448.902 327.848 450.284 324.655C450.284 324.655 462.351 322.584 466.924 324.137L466.319 344.842C466.319 344.842 464.162 351.053 465.972 352.694C467.783 354.335 466.06 359.423 466.06 359.423C466.06 359.423 465.801 360.37 467.353 363.564C468.905 366.758 467.353 368.223 467.353 368.223V374.346C467.353 374.346 466.148 378.487 467.524 381.851C468.9 385.216 467.369 392.204 466.764 392.312Z" fill="#3F3D56"/>
<path opacity="0.1" d="M449.89 174.577C456.603 174.577 462.046 169.131 462.046 162.413C462.046 155.695 456.603 150.249 449.89 150.249C443.177 150.249 437.734 155.695 437.734 162.413C437.734 169.131 443.177 174.577 449.89 174.577Z" fill="black"/>
<path d="M449.89 174.059C456.603 174.059 462.046 168.613 462.046 161.895C462.046 155.177 456.603 149.731 449.89 149.731C443.177 149.731 437.734 155.177 437.734 161.895C437.734 168.613 443.177 174.059 449.89 174.059Z" fill="#FBBEBE"/>
<path opacity="0.1" d="M425.838 289.995L442.908 280.937C442.908 280.937 442.908 282.634 442.877 285.248C440.383 286.739 436.623 288.98 433.007 291.097C431.042 292.252 429.123 293.37 427.478 294.307C427.095 294.514 426.696 294.687 426.283 294.824C426.055 292.552 425.838 289.995 425.838 289.995Z" fill="black"/>
<path opacity="0.1" d="M467.367 280.916C467.367 280.916 467.367 288.427 467.155 296.144H467.093C465.818 296.19 464.541 296.15 463.271 296.025C461.041 295.787 459.257 295.197 458.615 294.027C457.317 291.75 453.681 288.851 450.608 286.693C450.448 282.272 450.318 278.276 450.318 278.276L467.367 280.916Z" fill="black"/>
<path d="M464.191 215.133C463.759 218.502 463.676 221.907 463.943 225.293C471.785 231.764 470.321 245.393 470.321 245.393C470.321 245.393 476.357 273.002 475.064 275.502C473.771 278.002 477.992 293.36 477.992 293.36C474.394 294.042 470.752 294.461 467.093 294.613C465.818 294.658 464.541 294.618 463.271 294.494C461.041 294.256 459.257 293.666 458.615 292.496C456.205 288.272 445.772 281.973 445.772 281.973C445.772 281.973 439.161 285.938 433.006 289.545C431.04 290.7 429.121 291.818 427.476 292.755C426.141 293.463 424.666 293.868 423.157 293.94C415.838 294.483 406.087 289.897 407.639 288.272C409.538 286.284 418.936 251.433 418.936 251.433C418.936 251.433 423.674 229.864 427.812 226.846C428.538 226.298 429.079 225.541 429.364 224.678C430.781 220.738 428.412 214.424 428.412 214.424C428.412 214.424 415.052 197.948 415.652 196.995C416.252 196.043 416.257 190.96 416.257 190.96C416.257 190.96 417.896 182.937 418.843 179.055C419.79 175.173 426.602 174.22 428.583 174.567C430.564 174.914 435.044 176.12 436.937 174.567C438.83 173.014 442.027 175.173 442.027 175.173L449.879 177.336L456.939 173.195C456.939 173.195 464.016 173.558 464.621 174.505C465.226 175.452 474.537 177.269 474.537 177.269C479.275 180.457 479.104 195.644 479.104 195.644C479.104 195.644 467.724 205.562 465.397 210.655C464.794 212.086 464.388 213.592 464.191 215.133Z" fill="#575A89"/>
<path d="M476.529 193.542L479.115 195.612L481.789 219.682L484.459 243.839C484.459 243.839 485.493 246.256 486.357 245.997C487.221 245.739 487.133 260.315 487.133 260.315C487.133 260.315 477.232 254.222 473.684 262.313L470.922 242.804C470.922 242.804 467.384 222.875 467.472 221.323C467.559 219.77 465.661 202.947 465.661 202.947L476.529 193.542Z" fill="#575A89"/>
<path d="M417.562 194.666L415.663 196.995C415.663 196.995 415.839 207.001 414.37 209.418C412.901 211.835 418.426 225.982 420.495 225.117C422.564 224.253 427.219 202.171 427.219 201.913C427.219 201.654 417.562 194.666 417.562 194.666Z" fill="#575A89"/>
<path d="M417.391 208.9C417.391 208.9 411.354 215.024 411.784 217.959C412.213 220.894 417.991 230.112 426.267 225.159C426.267 225.159 433.943 210.712 417.391 208.9Z" fill="#575A89"/>
<path opacity="0.1" d="M442.106 392.328C440.601 392.385 432.045 392.328 432.045 392.328C431.92 392.197 431.802 392.059 431.693 391.914C433.881 391.169 438.609 390.05 442.106 392.328Z" fill="black"/>
<path opacity="0.1" d="M466.577 392.328C465.071 392.385 456.516 392.328 456.516 392.328C456.391 392.197 456.273 392.059 456.164 391.914C458.342 391.169 463.07 390.05 466.577 392.328Z" fill="black"/>
<path opacity="0.1" d="M433.616 240.599C432.297 253.26 432.732 278.385 433.006 289.545C431.04 290.699 429.121 291.817 427.476 292.754C426.141 293.462 424.666 293.867 423.157 293.939C422.609 290.564 430.202 255.899 433.616 240.599Z" fill="black"/>
<path opacity="0.1" d="M435.231 233.414C435.195 233.595 434.569 236.349 433.617 240.599C433.99 236.97 434.507 234.366 435.231 233.414Z" fill="black"/>
<path opacity="0.1" d="M456.232 232.048C456.232 232.048 463.562 278.116 441.857 283.81C441.852 283.789 456.874 281.506 456.232 232.048Z" fill="black"/>
<path opacity="0.1" d="M467.094 294.613C465.819 294.658 464.542 294.618 463.271 294.494L457.416 231.505C461.151 233.948 465.62 278.649 467.094 294.613Z" fill="black"/>
<path opacity="0.1" d="M440.837 154.742C441.226 154.711 441.617 154.751 441.991 154.861C442.54 155.135 443.034 155.506 443.45 155.958C444.124 156.522 444.931 156.906 445.794 157.073C446.657 157.241 447.548 157.187 448.384 156.916C448.974 156.652 449.6 156.477 450.241 156.398C451.229 156.398 452.083 157.123 452.595 157.951C453.107 158.779 453.371 159.763 453.81 160.648C454.25 161.533 454.953 162.371 455.921 162.589C456.385 162.607 456.841 162.712 457.266 162.899C457.526 163.111 457.726 163.388 457.845 163.702C458.652 165.446 459.293 167.506 461.016 168.36C461.649 168.654 462.34 168.804 463.038 168.8C463.748 168.852 464.46 168.724 465.107 168.428C465.744 168.072 466.27 167.547 466.628 166.911C467.704 165.13 467.828 162.925 467.575 160.86C467.259 158.255 466.332 155.761 464.869 153.582C463.329 151.379 461.231 149.624 458.791 148.497C456.351 147.371 453.656 146.912 450.981 147.169C450.047 147.274 449.122 147.447 448.214 147.687C444.924 148.567 441.696 150.213 439.699 152.972C439.217 153.66 438.686 154.314 438.111 154.928C439.017 154.84 439.927 154.762 440.837 154.742Z" fill="black"/>
<path d="M440.837 154.224C441.226 154.193 441.617 154.234 441.991 154.343C442.54 154.617 443.034 154.989 443.45 155.441C444.124 156.005 444.931 156.388 445.794 156.556C446.657 156.723 447.548 156.669 448.384 156.398C448.974 156.134 449.6 155.96 450.241 155.881C451.229 155.881 452.083 156.605 452.595 157.433C453.107 158.262 453.371 159.245 453.81 160.13C454.25 161.015 454.953 161.854 455.921 162.071C456.385 162.089 456.841 162.195 457.266 162.382C457.526 162.594 457.726 162.87 457.845 163.184C458.652 164.929 459.293 166.989 461.016 167.843C461.649 168.137 462.34 168.287 463.038 168.283C463.748 168.335 464.46 168.207 465.107 167.91C465.744 167.554 466.27 167.029 466.628 166.393C467.704 164.613 467.828 162.408 467.575 160.342C467.259 157.737 466.332 155.243 464.869 153.065C463.329 150.861 461.231 149.107 458.791 147.98C456.351 146.853 453.656 146.395 450.981 146.651C450.047 146.757 449.122 146.93 448.214 147.169C444.924 148.049 441.696 149.695 439.699 152.454C439.217 153.143 438.686 153.796 438.111 154.411C439.017 154.323 439.927 154.245 440.837 154.224Z" fill="#3F3D56"/>
<path opacity="0.1" d="M427.647 183.19C427.647 183.19 428.252 188.025 426.183 189.231C424.114 190.437 427.647 183.19 427.647 183.19Z" fill="black"/>
<path opacity="0.1" d="M471.527 220.634C471.527 220.634 476.441 213.387 477.134 215.458C477.828 217.528 471.527 220.634 471.527 220.634Z" fill="black"/>
<path opacity="0.1" d="M471.873 223.047C471.873 223.047 476.72 217.094 477.185 219.423C477.651 221.753 471.873 223.047 471.873 223.047Z" fill="black"/>
<path opacity="0.1" d="M457.639 215.961C455.881 215.986 454.166 215.421 452.766 214.356H452.342C450.891 215.683 448.985 216.4 447.019 216.359C445.998 216.383 444.981 216.199 444.033 215.818C443.084 215.437 442.223 214.868 441.5 214.144H440.936C439.447 215.357 437.577 216.004 435.656 215.969C433.736 215.934 431.89 215.22 430.446 213.952L428.424 213.916C428.424 213.916 430.793 220.231 429.376 224.17L463.944 224.786C463.677 221.4 463.76 217.994 464.193 214.625V214.579L462.294 214.542C460.929 215.49 459.301 215.986 457.639 215.961Z" fill="black"/>
<path opacity="0.1" d="M457.639 216.996C455.881 217.021 454.166 216.456 452.766 215.391H452.342C450.891 216.718 448.985 217.435 447.019 217.394C445.998 217.418 444.981 217.234 444.033 216.853C443.084 216.472 442.223 215.903 441.5 215.179H440.936C439.447 216.393 437.577 217.039 435.656 217.004C433.736 216.969 431.89 216.255 430.446 214.987L428.424 214.951C428.424 214.951 430.793 221.266 429.376 225.205L463.944 225.821C463.677 222.435 463.76 219.03 464.193 215.66V215.614L462.294 215.577C460.929 216.525 459.301 217.021 457.639 216.996Z" fill="black"/>
<path d="M457.639 216.478C455.881 216.503 454.166 215.938 452.766 214.874H452.342C450.891 216.2 448.985 216.918 447.019 216.877C445.998 216.9 444.981 216.716 444.033 216.336C443.084 215.955 442.223 215.385 441.5 214.661H440.936C439.447 215.875 437.577 216.522 435.656 216.487C433.736 216.452 431.89 215.737 430.446 214.47L428.424 214.434C428.424 214.434 430.793 220.749 429.376 224.688L463.944 225.304C463.677 221.917 463.76 218.512 464.193 215.143V215.096L462.294 215.06C460.929 216.008 459.301 216.504 457.639 216.478Z" fill="#3F3D56"/>
<path opacity="0.1" d="M456.102 181.963C456.102 181.963 463.379 182.429 463.426 183.464C463.473 184.499 456.102 181.963 456.102 181.963Z" fill="black"/>
<path opacity="0.1" d="M438.422 177.548C438.422 177.548 431.144 178.014 431.098 179.049C431.051 180.084 438.422 177.548 438.422 177.548Z" fill="black"/>
<path opacity="0.1" d="M466.235 198.713C466.163 198.661 466.091 198.62 466.018 198.573C467.88 200.25 467.57 203.915 465.284 206.938C462.997 209.961 459.526 211.219 457.416 209.862C457.483 209.919 457.54 209.982 457.613 210.038C459.682 211.622 463.302 210.38 465.692 207.254C468.082 204.127 468.315 200.302 466.235 198.713Z" fill="black"/>
<path opacity="0.1" d="M426.255 206.55C424.414 203.227 424.652 199.557 426.736 198.165C426.659 198.201 426.576 198.232 426.498 198.274C424.212 199.547 423.912 203.362 425.805 206.799C427.698 210.236 431.112 211.975 433.399 210.722C433.474 210.679 433.547 210.631 433.616 210.578C431.335 211.613 428.097 209.874 426.255 206.55Z" fill="black"/>
<path opacity="0.1" d="M428.719 178.527L428.051 179.562L426.35 178.656L427.245 177.279C427.836 177.559 428.345 177.989 428.719 178.527Z" fill="black"/>
<path d="M417.907 216.835C417.907 216.835 419.423 209.702 417.39 207.435C415.357 205.168 416.009 193.283 419.113 193.542C422.216 193.801 426.872 203.201 426.096 205.189C425.32 207.176 422.387 217.353 422.387 217.353L417.907 216.835Z" fill="#FBBEBE"/>
<path opacity="0.1" d="M466.576 165.373C466.219 166.009 465.692 166.534 465.056 166.89C464.408 167.186 463.697 167.315 462.987 167.263C462.288 167.267 461.598 167.116 460.964 166.823C459.242 165.963 458.6 163.903 457.793 162.164C457.691 161.85 457.509 161.568 457.266 161.346C456.847 161.156 456.396 161.045 455.936 161.02C454.969 160.803 454.271 159.959 453.826 159.079C453.381 158.199 453.117 157.226 452.61 156.382C452.103 155.538 451.245 154.798 450.257 154.829C449.614 154.915 448.987 155.098 448.4 155.373C447.563 155.642 446.672 155.694 445.809 155.526C444.946 155.358 444.14 154.974 443.465 154.41C443.05 153.958 442.555 153.587 442.006 153.313C441.632 153.203 441.241 153.163 440.853 153.194C440.258 153.194 439.668 153.251 439.074 153.297C438.779 153.684 438.463 154.054 438.127 154.405C439.032 154.327 439.943 154.25 440.853 154.229C441.241 154.198 441.632 154.238 442.006 154.348C442.555 154.622 443.05 154.994 443.465 155.445C444.14 156.009 444.946 156.393 445.809 156.561C446.672 156.73 447.563 156.677 448.4 156.408C448.987 156.133 449.614 155.95 450.257 155.865C451.245 155.865 452.098 156.589 452.61 157.417C453.122 158.246 453.386 159.229 453.826 160.114C454.266 160.999 454.969 161.838 455.936 162.055C456.396 162.08 456.847 162.191 457.266 162.381C457.526 162.593 457.726 162.87 457.845 163.184C458.652 164.928 459.293 166.988 461.016 167.842C461.649 168.136 462.34 168.286 463.038 168.282C463.748 168.334 464.46 168.206 465.107 167.91C465.744 167.554 466.27 167.029 466.628 166.393C467.431 164.93 467.791 163.264 467.663 161.6C467.623 162.929 467.25 164.227 466.576 165.373Z" fill="black"/>
<path d="M420.198 222.493C422.769 222.493 424.854 221.079 424.854 219.335C424.854 217.591 422.769 216.178 420.198 216.178C417.627 216.178 415.543 217.591 415.543 219.335C415.543 221.079 417.627 222.493 420.198 222.493Z" fill="#575A89"/>
<path d="M268.455 395.093C356.586 395.093 428.03 323.599 428.03 235.408C428.03 147.216 356.586 75.7227 268.455 75.7227C180.323 75.7227 108.879 147.216 108.879 235.408C108.879 323.599 180.323 395.093 268.455 395.093Z" fill="#E66B31"/>
<path d="M352.183 315.653C352.183 340.861 312.582 317.807 270.125 317.807C227.668 317.807 184.725 339.909 184.725 314.701C184.725 300.327 198.411 280.336 218.047 265.817C232.84 254.875 251.007 247.038 269.256 247.038C288.022 247.038 306.406 255.522 321.07 267.168C339.578 281.853 352.183 301.585 352.183 315.653Z" fill="#444053"/>
<path d="M321.065 267.157C298.497 263.757 257.68 259.611 218.047 265.806C232.841 254.864 251.007 247.027 269.256 247.027C288.017 247.027 306.401 255.511 321.065 267.157Z" fill="#F6F8FB"/>
<path opacity="0.05" d="M184.725 122.686C184.725 122.686 136.656 153.437 137.049 201.539C137.442 249.642 184.725 122.686 184.725 122.686Z" fill="black"/>
<path d="M427.969 35.8348C427.969 35.8348 384.415 33.2104 389.552 63.7499C389.552 63.7499 388.517 69.1435 393.421 71.597C393.421 71.597 393.499 69.335 397.885 70.101C399.448 70.3628 401.037 70.4392 402.618 70.3288C404.755 70.1834 406.785 69.3437 408.401 67.9374C408.401 67.9374 420.645 62.8803 425.409 42.8537C425.409 42.8537 428.931 38.485 428.792 37.3669L421.441 40.5037C421.441 40.5037 423.95 45.8093 421.958 50.2194C421.958 50.2194 421.721 40.7004 420.308 40.9022C420.024 40.9488 416.491 42.7398 416.491 42.7398C416.491 42.7398 420.81 51.9844 417.526 58.6979C417.526 58.6979 418.762 47.3103 415.115 43.4075L409.942 46.4304C409.942 46.4304 414.991 55.9753 411.567 63.7654C411.567 63.7654 412.446 51.8188 408.856 47.1654L404.165 50.825C404.165 50.825 408.908 60.2353 406.016 66.6951C406.016 66.6951 405.639 52.7867 403.151 51.736C403.151 51.736 399.049 55.3593 398.423 56.8449C398.423 56.8449 401.671 63.6722 399.659 67.2749C399.659 67.2749 398.423 58.0095 397.409 57.9577C397.409 57.9577 393.323 64.0967 392.893 68.3101C392.893 68.3101 393.074 62.0469 396.416 57.3728C396.416 57.3728 392.464 58.0509 390.162 60.6183C390.162 60.6183 390.799 56.2755 397.404 55.8976C397.404 55.8976 400.782 51.2391 401.687 50.9596C401.687 50.9596 395.092 50.4057 391.093 52.1811C391.093 52.1811 394.611 48.0868 402.892 49.945L407.548 46.1664C407.548 46.1664 398.868 44.9759 395.185 46.2906C395.185 46.2906 399.421 42.6673 408.794 45.3072L413.837 42.2895C413.837 42.2895 406.435 40.6952 402.023 41.2542C402.023 41.2542 406.679 38.7438 415.312 41.4664L418.932 39.8463C418.932 39.8463 413.506 38.78 411.918 38.6144C410.33 38.4487 410.248 38.0036 410.248 38.0036C413.693 37.4429 417.227 37.8534 420.453 39.1889C420.453 39.1889 428.098 36.3162 427.969 35.8348Z" fill="#E66B31"/>
<path d="M383.298 22.2572C383.298 22.2572 363.642 21.0667 365.939 34.8664C365.939 34.8664 365.478 37.3044 367.687 38.4121C367.687 38.4121 367.718 37.3768 369.704 37.7392C370.41 37.8554 371.127 37.8901 371.841 37.8427C372.807 37.7737 373.725 37.3942 374.458 36.7609C374.458 36.7609 379.987 34.473 382.139 25.425C382.139 25.425 383.732 23.4529 383.691 22.9457L380.37 24.3639C380.37 24.3639 381.508 26.7605 380.613 28.7533C380.613 28.7533 380.505 24.4519 379.868 24.5554C379.739 24.5554 378.141 25.3836 378.141 25.3836C378.141 25.3836 380.096 29.5608 378.622 32.594C378.622 32.594 379.181 27.4489 377.536 25.6839L375.198 27.0504C375.198 27.0504 377.479 31.3673 375.932 34.8871C375.932 34.8871 376.325 29.4883 374.706 27.3868L372.585 29.038C372.585 29.038 374.727 33.2877 373.423 36.207C373.423 36.207 373.253 29.9231 372.125 29.4469C372.125 29.4469 370.273 31.0826 369.989 31.7555C369.989 31.7555 371.458 34.8612 370.547 36.471C370.547 36.471 369.989 32.2835 369.513 32.2679C369.513 32.2679 367.666 35.0372 367.475 36.9265C367.564 35.1683 368.111 33.464 369.063 31.9833C367.999 32.1848 367.017 32.694 366.239 33.4481C366.239 33.4481 366.523 31.4863 369.518 31.3155C369.518 31.3155 371.044 29.214 371.453 29.0846C371.453 29.0846 368.473 28.8361 366.668 29.6385C366.668 29.6385 368.256 27.7854 372.001 28.6032L374.07 26.9003C374.07 26.9003 370.149 26.3826 368.484 26.952C368.484 26.952 370.397 25.3163 374.634 26.512L376.91 25.1455C376.91 25.1455 373.568 24.426 371.572 24.6849C371.572 24.6849 373.677 23.5513 377.577 24.7832L379.206 24.0482C379.206 24.0482 376.755 23.5668 376.041 23.4943C375.327 23.4219 375.28 23.22 375.28 23.22C376.833 22.9615 378.427 23.1407 379.884 23.7376C379.884 23.7376 383.355 22.4746 383.298 22.2572Z" fill="#E66B31"/>
<path opacity="0.1" d="M555.07 377.866C562.764 377.866 569 376.811 569 375.51C569 374.21 562.764 373.155 555.07 373.155C547.377 373.155 541.141 374.21 541.141 375.51C541.141 376.811 547.377 377.866 555.07 377.866Z" fill="#E66B31"/>
<path opacity="0.1" d="M24.1916 417.044C31.8849 417.044 38.1215 415.99 38.1215 414.689C38.1215 413.388 31.8849 412.334 24.1916 412.334C16.4983 412.334 10.2617 413.388 10.2617 414.689C10.2617 415.99 16.4983 417.044 24.1916 417.044Z" fill="#E66B31"/>
<path opacity="0.1" d="M105.057 420C112.75 420 118.987 418.946 118.987 417.645C118.987 416.344 112.75 415.29 105.057 415.29C97.3636 415.29 91.127 416.344 91.127 417.645C91.127 418.946 97.3636 420 105.057 420Z" fill="#E66B31"/>
<path d="M524.582 404.27C536.069 404.27 545.381 402.694 545.381 400.75C545.381 398.806 536.069 397.23 524.582 397.23C513.095 397.23 503.783 398.806 503.783 400.75C503.783 402.694 513.095 404.27 524.582 404.27Z" fill="#E66B31"/>
<path d="M533.179 394.999C534.129 394.223 534.821 393.178 535.166 392.002C535.419 390.816 534.912 389.388 533.779 388.953C532.507 388.466 531.147 389.352 530.117 390.242C529.088 391.132 527.903 392.147 526.553 391.96C527.248 391.331 527.767 390.533 528.061 389.643C528.354 388.753 528.412 387.802 528.229 386.882C528.17 386.502 528.009 386.144 527.764 385.847C527.055 385.091 525.777 385.412 524.929 386.008C522.239 387.902 521.489 391.557 521.474 394.849C521.205 393.663 521.432 392.426 521.427 391.225C521.422 390.024 521.086 388.637 520.062 388.001C519.426 387.661 518.713 387.493 517.993 387.514C516.782 387.467 515.437 387.586 514.61 388.472C513.575 389.574 513.849 391.417 514.744 392.612C515.639 393.808 516.994 394.585 518.241 395.418C519.244 396.015 520.1 396.83 520.744 397.804C520.82 397.941 520.882 398.085 520.931 398.234H528.508C530.204 397.371 531.775 396.283 533.179 394.999Z" fill="#E66B31"/>
<path d="M30.6952 351.597C30.6952 351.597 33.535 355.313 29.3813 360.914C25.2277 366.514 21.8034 371.266 23.1742 374.765C23.1742 374.765 29.4382 364.34 34.554 364.19C39.6697 364.04 36.3023 357.865 30.6952 351.597Z" fill="#E66B31"/>
<path opacity="0.1" d="M30.6939 351.597C30.9405 351.956 31.1355 352.348 31.2732 352.761C36.2493 358.61 38.8977 364.071 34.1182 364.206C29.6593 364.335 24.2902 372.307 23.0332 374.32C23.0771 374.476 23.1289 374.63 23.1884 374.781C23.1884 374.781 29.4524 364.356 34.5682 364.206C39.6839 364.056 36.301 357.865 30.6939 351.597Z" fill="black"/>
<path d="M35.9753 356.333C35.9753 357.643 35.8253 358.704 35.6442 358.704C35.4632 358.704 35.3184 357.669 35.3184 356.333C35.3184 354.998 35.4994 355.64 35.6856 355.64C35.8718 355.64 35.9753 355.024 35.9753 356.333Z" fill="#FFD037"/>
<path d="M37.7661 357.896C36.6178 358.522 35.6195 358.9 35.5316 358.74C35.4436 358.579 36.3074 357.948 37.4558 357.321C38.6041 356.695 38.1489 357.151 38.2368 357.321C38.3248 357.492 38.9351 357.27 37.7661 357.896Z" fill="#FFD037"/>
<path d="M15.6843 351.597C15.6843 351.597 12.8445 355.313 16.993 360.914C21.1414 366.514 24.5709 371.266 23.2001 374.765C23.2001 374.765 16.9309 364.34 11.8203 364.19C6.70976 364.04 10.072 357.865 15.6843 351.597Z" fill="#E66B31"/>
<path opacity="0.1" d="M15.684 351.597C15.4351 351.955 15.2399 352.347 15.1046 352.761C10.1286 358.61 7.475 364.071 12.2597 364.206C16.7133 364.335 22.0877 372.307 23.3395 374.32C23.2973 374.476 23.2472 374.63 23.1895 374.781C23.1895 374.781 16.9202 364.356 11.8097 364.206C6.6991 364.056 10.0717 357.865 15.684 351.597Z" fill="black"/>
<path d="M10.4023 356.333C10.4023 357.643 10.5472 358.704 10.7282 358.704C10.9093 358.704 11.0541 357.669 11.0541 356.333C11.0541 354.998 10.8731 355.64 10.692 355.64C10.511 355.64 10.4023 355.024 10.4023 356.333Z" fill="#FFD037"/>
<path d="M8.58638 357.896C9.73471 358.522 10.7382 358.9 10.8261 358.74C10.9141 358.579 10.0502 357.948 8.90191 357.321C7.75359 356.695 8.20361 357.151 8.12085 357.321C8.03809 357.492 7.43806 357.27 8.58638 357.896Z" fill="#FFD037"/>
<path d="M11.3066 374.294C11.3066 374.294 19.2518 374.051 21.6519 372.343C24.052 370.635 33.8748 368.6 34.4697 371.308C35.0645 374.015 46.4081 384.921 37.4388 384.993C28.4694 385.066 16.5982 383.591 14.2085 382.136C11.8187 380.682 11.3066 374.294 11.3066 374.294Z" fill="#A8A8A8"/>
<path opacity="0.2" d="M37.5888 384.067C28.6194 384.14 16.7483 382.664 14.3585 381.21C12.5377 380.102 11.8136 376.122 11.5704 374.284H11.3066C11.3066 374.284 11.8239 380.697 14.1981 382.152C16.5724 383.606 28.4591 385.082 37.4284 385.009C40.0148 385.009 40.9096 384.062 40.8631 382.701C40.501 383.534 39.5182 384.052 37.5888 384.067Z" fill="black"/>
<path d="M211.722 214.47C214.758 214.299 229.05 213.222 238.128 208.041C239.586 207.182 241.233 206.697 242.923 206.628C245.809 206.545 249.13 207.751 247.004 214.501C243.559 225.541 223.557 237.964 211.142 237.276C199.204 236.613 185.041 231.799 175.689 214.873C174.793 213.245 174.352 211.405 174.412 209.547C174.52 206.131 175.762 201.85 182.171 206.622C190.83 213.067 207.258 214.288 210.553 214.47C210.942 214.49 211.332 214.49 211.722 214.47Z" fill="#444053"/>
<path d="M326.554 214.47C329.59 214.299 343.882 213.222 352.96 208.041C354.418 207.182 356.065 206.697 357.755 206.628C360.641 206.545 363.962 207.751 361.836 214.501C358.391 225.541 338.389 237.964 325.975 237.276C314.036 236.613 299.873 231.799 290.521 214.873C289.625 213.245 289.184 211.405 289.244 209.547C289.352 206.131 290.594 201.85 297.003 206.622C305.662 213.067 322.09 214.288 325.385 214.47C325.774 214.49 326.164 214.49 326.554 214.47Z" fill="#444053"/>
</g>
<defs>
<linearGradient id="paint0_linear_8_277" x1="461.471" y1="392.349" x2="461.471" y2="136.625" gradientUnits="userSpaceOnUse">
<stop stop-color="#808080" stop-opacity="0.25"/>
<stop offset="0.54" stop-color="#808080" stop-opacity="0.12"/>
<stop offset="1" stop-color="#808080" stop-opacity="0.1"/>
</linearGradient>
<clipPath id="clip0_8_277">
<rect width="569" height="420" fill="white"/>
</clipPath>
</defs>
</svg>
