<svg width="24" height="24" viewBox="0 0 24 24" fill="none" xmlns="http://www.w3.org/2000/svg">
<path d="M11.9998 15.5002C12.1314 15.5009 12.2619 15.4757 12.3837 15.426C12.5056 15.3762 12.6164 15.3029 12.7098 15.2102L16.7098 11.2102C16.8031 11.1169 16.877 11.0063 16.9275 10.8844C16.9779 10.7626 17.0039 10.632 17.0039 10.5002C17.0039 10.3683 16.9779 10.2378 16.9275 10.1159C16.877 9.99411 16.8031 9.88342 16.7098 9.79018C16.6166 9.69695 16.5059 9.62299 16.3841 9.57253C16.2622 9.52206 16.1317 9.49609 15.9998 9.49609C15.868 9.49609 15.7374 9.52206 15.6156 9.57253C15.4937 9.62299 15.3831 9.69695 15.2898 9.79018L11.9998 13.1002L8.69981 9.92019C8.60782 9.8179 8.49572 9.73569 8.3705 9.6787C8.24529 9.62171 8.10967 9.59118 7.97211 9.589C7.83456 9.58682 7.69803 9.61304 7.57108 9.66603C7.44412 9.71903 7.32947 9.79764 7.23428 9.89697C7.1391 9.99629 7.06543 10.1142 7.01789 10.2433C6.97034 10.3724 6.94995 10.5099 6.95798 10.6472C6.966 10.7846 7.00228 10.9188 7.06454 11.0414C7.1268 11.1641 7.21371 11.2726 7.31981 11.3602L11.3198 15.2202C11.5027 15.3965 11.7458 15.4966 11.9998 15.5002Z" fill="#97A0A8"/>
</svg>
