<svg width="20" height="20" viewBox="0 0 20 20" fill="none" xmlns="http://www.w3.org/2000/svg">
<path d="M11.7437 6.56355L11.6171 7.16634H12.233H17.4997C17.8091 7.16634 18.1058 7.28926 18.3246 7.50805C18.5434 7.72684 18.6663 8.02359 18.6663 8.33301V9.99967C18.6663 10.1469 18.639 10.2832 18.5867 10.419L16.0734 16.2861L16.0734 16.2861L16.0715 16.2907C15.8974 16.7084 15.4852 16.9997 14.9997 16.9997H7.49967C7.19026 16.9997 6.89351 16.8768 6.67472 16.658C6.45592 16.4392 6.33301 16.1424 6.33301 15.833V7.49967C6.33301 7.17862 6.46031 6.88781 6.67823 6.66989L11.8097 1.53844L12.3378 2.06156C12.338 2.0618 12.3383 2.06204 12.3385 2.06228C12.4734 2.19759 12.558 2.38835 12.558 2.59134C12.558 2.65328 12.5523 2.711 12.5431 2.7579L11.7437 6.56355ZM3.66634 7.99967V16.9997H1.33301V7.99967H3.66634Z" stroke="#424242"/>
</svg>
