<svg width="20" height="20" viewBox="0 0 20 20" fill="none" xmlns="http://www.w3.org/2000/svg">
<mask id="path-1-inside-1_1129_40" fill="white">
<path d="M15.833 12.5H19.1663V2.5H15.833M12.4997 2.5H4.99967C4.30801 2.5 3.71634 2.91667 3.46634 3.51667L0.949674 9.39167C0.874674 9.58333 0.833008 9.78333 0.833008 10V11.6667C0.833008 12.1087 1.0086 12.5326 1.32116 12.8452C1.63372 13.1577 2.05765 13.3333 2.49967 13.3333H7.75801L6.96634 17.1417C6.94967 17.225 6.94134 17.3083 6.94134 17.4C6.94134 17.75 7.08301 18.0583 7.30801 18.2833L8.19134 19.1667L13.6747 13.675C13.983 13.375 14.1663 12.9583 14.1663 12.5V4.16667C14.1663 3.72464 13.9907 3.30072 13.6782 2.98816C13.3656 2.67559 12.9417 2.5 12.4997 2.5Z"/>
</mask>
<path d="M19.1663 12.5V13.5H20.1663V12.5H19.1663ZM19.1663 2.5H20.1663V1.5H19.1663V2.5ZM12.4997 2.5V1.5V2.5ZM3.46634 3.51667L4.3856 3.91045L4.38942 3.90128L3.46634 3.51667ZM0.949674 9.39167L0.030462 8.9979L0.0242139 9.01249L0.0184317 9.02727L0.949674 9.39167ZM0.833008 11.6667H-0.166992H0.833008ZM7.75801 13.3333L8.73708 13.5369L8.98726 12.3333H7.75801V13.3333ZM6.96634 17.1417L5.98724 16.9381L5.98576 16.9455L6.96634 17.1417ZM8.19134 19.1667L7.48423 19.8738L8.19188 20.5814L8.89898 19.8732L8.19134 19.1667ZM13.6747 13.675L12.9773 12.9583L12.9721 12.9633L12.967 12.9684L13.6747 13.675ZM15.833 13.5H19.1663V11.5H15.833V13.5ZM20.1663 12.5V2.5H18.1663V12.5H20.1663ZM19.1663 1.5H15.833V3.5H19.1663V1.5ZM12.4997 1.5H4.99967V3.5H12.4997V1.5ZM4.99967 1.5C3.89567 1.5 2.94519 2.16744 2.54326 3.13205L4.38942 3.90128C4.4875 3.66589 4.72034 3.5 4.99967 3.5V1.5ZM2.54713 3.1229L0.030462 8.9979L1.86889 9.78543L4.38555 3.91043L2.54713 3.1229ZM0.0184317 9.02727C-0.0985144 9.32613 -0.166992 9.64941 -0.166992 10H1.83301C1.83301 9.91726 1.84786 9.84054 1.88092 9.75607L0.0184317 9.02727ZM-0.166992 10V11.6667H1.83301V10H-0.166992ZM-0.166992 11.6667C-0.166992 12.3739 0.11396 13.0522 0.614056 13.5523L2.02827 12.1381C1.90325 12.013 1.83301 11.8435 1.83301 11.6667H-0.166992ZM0.614056 13.5523C1.11415 14.0524 1.79243 14.3333 2.49967 14.3333V12.3333C2.32286 12.3333 2.15329 12.2631 2.02827 12.1381L0.614056 13.5523ZM2.49967 14.3333H7.75801V12.3333H2.49967V14.3333ZM6.77894 13.1298L5.98727 16.9381L7.94541 17.3452L8.73708 13.5369L6.77894 13.1298ZM5.98576 16.9455C5.9558 17.0953 5.94134 17.2444 5.94134 17.4H7.94134C7.94134 17.3722 7.94355 17.3547 7.94692 17.3378L5.98576 16.9455ZM5.94134 17.4C5.94134 18.0302 6.19922 18.5888 6.6009 18.9904L8.01512 17.5762C7.9668 17.5279 7.94134 17.4698 7.94134 17.4H5.94134ZM6.6009 18.9904L7.48423 19.8738L8.89845 18.4596L8.01512 17.5762L6.6009 18.9904ZM8.89898 19.8732L14.3823 14.3816L12.967 12.9684L7.4837 18.4601L8.89898 19.8732ZM14.372 14.3917C14.8722 13.905 15.1663 13.2305 15.1663 12.5H13.1663C13.1663 12.6861 13.0938 12.845 12.9773 12.9583L14.372 14.3917ZM15.1663 12.5V4.16667H13.1663V12.5H15.1663ZM15.1663 4.16667C15.1663 3.45942 14.8854 2.78115 14.3853 2.28105L12.9711 3.69526C13.0961 3.82029 13.1663 3.98986 13.1663 4.16667H15.1663ZM14.3853 2.28105C13.8852 1.78095 13.2069 1.5 12.4997 1.5V3.5C12.6765 3.5 12.8461 3.57024 12.9711 3.69526L14.3853 2.28105Z" fill="#424242" mask="url(#path-1-inside-1_1129_40)"/>
</svg>
