<svg width="15" height="13" viewBox="0 0 15 13" fill="none" xmlns="http://www.w3.org/2000/svg">
<path d="M1.701 12H1.5C1.10218 12 0.720644 11.842 0.43934 11.5607C0.158035 11.2794 0 10.8978 0 10.5V1.5C0 1.10218 0.158035 0.720644 0.43934 0.43934C0.720644 0.158035 1.10218 0 1.5 0H13.5C13.8978 0 14.2794 0.158035 14.5607 0.43934C14.842 0.720644 15 1.10218 15 1.5V10.5C15 10.8978 14.842 11.2794 14.5607 11.5607C14.2794 11.842 13.8978 12 13.5 12H13.299C13.1673 12.228 12.978 12.4174 12.75 12.549C12.5219 12.6806 12.2633 12.7499 12 12.7499C11.7367 12.7499 11.4781 12.6806 11.25 12.549C11.022 12.4174 10.8327 12.228 10.701 12H4.299C4.16734 12.228 3.97799 12.4174 3.74997 12.549C3.52195 12.6806 3.26329 12.7499 3 12.7499C2.73671 12.7499 2.47805 12.6806 2.25003 12.549C2.02201 12.4174 1.83266 12.228 1.701 12ZM1.5 1.5V10.5H13.5V1.5H1.5ZM3 6H12V9H3V6ZM3 3H6.75V4.5H3V3ZM6 6.75V7.5H9V6.75H6ZM9 4.5C8.80109 4.5 8.61032 4.42098 8.46967 4.28033C8.32902 4.13968 8.25 3.94891 8.25 3.75C8.25 3.55109 8.32902 3.36032 8.46967 3.21967C8.61032 3.07902 8.80109 3 9 3C9.19891 3 9.38968 3.07902 9.53033 3.21967C9.67098 3.36032 9.75 3.55109 9.75 3.75C9.75 3.94891 9.67098 4.13968 9.53033 4.28033C9.38968 4.42098 9.19891 4.5 9 4.5ZM11.25 4.5C11.0511 4.5 10.8603 4.42098 10.7197 4.28033C10.579 4.13968 10.5 3.94891 10.5 3.75C10.5 3.55109 10.579 3.36032 10.7197 3.21967C10.8603 3.07902 11.0511 3 11.25 3C11.4489 3 11.6397 3.07902 11.7803 3.21967C11.921 3.36032 12 3.55109 12 3.75C12 3.94891 11.921 4.13968 11.7803 4.28033C11.6397 4.42098 11.4489 4.5 11.25 4.5Z" fill="#9D9D9D"/>
</svg>
