<svg width="16" height="16" viewBox="0 0 16 16" fill="none" xmlns="http://www.w3.org/2000/svg">
<path d="M6.90116 0.612011L14.669 1.99659C14.9797 2.05198 15.2031 2.28828 15.2031 2.5615V13.6382C15.2031 13.7709 15.15 13.8996 15.0527 14.0025C14.9554 14.1054 14.8199 14.1762 14.669 14.2031L6.90116 15.5877C6.80388 15.605 6.70334 15.6034 6.60683 15.5832C6.51032 15.5629 6.42026 15.5243 6.34318 15.4703C6.2661 15.4163 6.20393 15.3482 6.16118 15.271C6.11842 15.1937 6.09615 15.1093 6.09598 15.0237V1.17692C6.09591 1.09122 6.11801 1.00658 6.16066 0.929159C6.20331 0.851735 6.26545 0.783471 6.34256 0.729327C6.41967 0.675183 6.50981 0.63652 6.60644 0.616147C6.70306 0.595774 6.80374 0.594204 6.90116 0.61155V0.612011ZM4.48884 1.63845V2.79227H1.54241V13.4074H4.48884V14.5612H0.872768C0.707079 14.5612 0.547294 14.5082 0.424301 14.4126C0.301309 14.3169 0.223841 14.1854 0.206875 14.0434L0.203125 13.9848V2.21582C0.203125 1.91675 0.466696 1.67122 0.804196 1.64168L0.872768 1.63845H4.48884ZM7.43527 1.88583V14.3148L13.8638 13.1688V3.03134L7.43527 1.88583ZM9.04241 7.40755C9.25553 7.40755 9.45992 7.48049 9.61062 7.61032C9.76132 7.74015 9.84598 7.91623 9.84598 8.09984C9.84598 8.28345 9.76132 8.45953 9.61062 8.58936C9.45992 8.71919 9.25553 8.79213 9.04241 8.79213C8.82929 8.79213 8.6249 8.71919 8.4742 8.58936C8.3235 8.45953 8.23884 8.28345 8.23884 8.09984C8.23884 7.91623 8.3235 7.74015 8.4742 7.61032C8.6249 7.48049 8.82929 7.40755 9.04241 7.40755Z" fill="#9D9D9D"/>
</svg>
