<svg width="15" height="15" viewBox="0 0 15 15" fill="none" xmlns="http://www.w3.org/2000/svg">
<path d="M14.25 5.52632H3.75V3.15789C3.75 2.28711 4.42275 1.57895 5.25 1.57895C6.07725 1.57895 6.75 2.28711 6.75 3.15789H8.25C8.25 1.41632 6.9045 0 5.25 0C3.5955 0 2.25 1.41632 2.25 3.15789V5.52632H0.75C0.551088 5.52632 0.360322 5.60949 0.21967 5.75755C0.0790176 5.9056 0 6.10641 0 6.31579V7.89474C0 9.95211 1.2555 11.7024 3 12.3553V15H4.5V12.6316H10.5V15H12V12.3553C13.7445 11.7024 15 9.95211 15 7.89474V6.31579C15 6.10641 14.921 5.9056 14.7803 5.75755C14.6397 5.60949 14.4489 5.52632 14.25 5.52632ZM13.5 7.89474C13.5 9.63632 12.1545 11.0526 10.5 11.0526H4.5C2.8455 11.0526 1.5 9.63632 1.5 7.89474V7.10526H13.5V7.89474Z" fill="#9D9D9D"/>
</svg>
