<svg width="15" height="13" viewBox="0 0 15 13" fill="none" xmlns="http://www.w3.org/2000/svg">
<path d="M12.9545 3.40909V2.04545C12.9545 0.920455 12.0341 0 10.9091 0H4.09091C2.96591 0 2.04545 0.920455 2.04545 2.04545V3.40909C0.920455 3.40909 0 4.32955 0 5.45455V8.86364C0 9.98864 0.920455 10.9091 2.04545 10.9091V11.5909C2.04545 11.9659 2.35227 12.2727 2.72727 12.2727C3.10227 12.2727 3.40909 11.9659 3.40909 11.5909V10.9091H11.5909V11.5909C11.5909 11.9659 11.8977 12.2727 12.2727 12.2727C12.6477 12.2727 12.9545 11.9659 12.9545 11.5909V10.9091C14.0795 10.9091 15 9.98864 15 8.86364V5.45455C15 4.32955 14.0795 3.40909 12.9545 3.40909ZM3.40909 2.04545C3.40909 1.67045 3.71591 1.36364 4.09091 1.36364H10.9091C11.2841 1.36364 11.5909 1.67045 11.5909 2.04545V3.94091C11.175 4.31591 10.9091 4.85455 10.9091 5.45455V6.81818H4.09091V5.45455C4.09091 4.85455 3.825 4.31591 3.40909 3.94091V2.04545ZM13.6364 8.86364C13.6364 9.23864 13.3295 9.54545 12.9545 9.54545H2.04545C1.67045 9.54545 1.36364 9.23864 1.36364 8.86364V5.45455C1.36364 5.07955 1.67045 4.77273 2.04545 4.77273C2.42045 4.77273 2.72727 5.07955 2.72727 5.45455V8.18182H12.2727V5.45455C12.2727 5.07955 12.5795 4.77273 12.9545 4.77273C13.3295 4.77273 13.6364 5.07955 13.6364 5.45455V8.86364Z" fill="#9D9D9D"/>
</svg>
